<svg version="1.1" xmlns="http://www.w3.org/2000/svg" xmlns:xlink="http://www.w3.org/1999/xlink" width="1036" height="702"><defs><clipPath id="EJaVbkszvylb"><path fill="none" stroke="none" d=" M 0 0 L 1036 0 L 1036 702 L 0 702 L 0 0 Z"/></clipPath></defs><g transform="scale(1,1)" clip-path="url(#EJaVbkszvylb)"><g><rect fill="rgb(255,255,255)" stroke="none" x="0" y="0" width="1037" height="703" fill-opacity="1"/><path fill="rgb(66,133,255)" stroke="none" paint-order="stroke fill markers" fill-rule="evenodd" d=" M 199.9689198419485 267.77586262105433 L 199.9689198419485 306.72197214844505 L 238.91502936933955 306.72197214844505 L 238.91502936933955 267.77586262105433 Z" fill-opacity="1"/><path fill="rgb(66,133,255)" stroke="none" paint-order="stroke fill markers" fill-rule="evenodd" d=" M 238.91502936933955 306.72197214844505 L 180.49586507825302 306.721972148445 L 180.49586507825302 365.14113643953107 L 238.91502936933955 365.14113643953107 Z" fill-opacity="1"/><path fill="rgb(66,133,255)" stroke="none" paint-order="stroke fill markers" fill-rule="evenodd" d=" M 180.49586507825302 365.14113643953107 L 180.49586507825302 267.77586262105433 L 83.13059125977543 267.77586262105433 L 83.13059125977543 365.14113643953107 Z" fill-opacity="1"/><path fill="rgb(66,133,255)" stroke="none" paint-order="stroke fill markers" fill-rule="evenodd" d=" M 83.13059125977543 267.77586262105433 L 238.91502936933955 267.77586262105433 L 238.91502936933955 111.99142451149154 L 83.13059125977543 111.99142451149154 Z" fill-opacity="1"/><path fill="rgb(66,133,255)" stroke="none" paint-order="stroke fill markers" fill-rule="evenodd" d=" M 238.91502936933955 111.99142451149154 L 238.91502936933955 365.14113643953107 L 492.06474129738126 365.14113643953107 L 492.06474129738126 111.99142451149154 Z" fill-opacity="1"/><path fill="none" stroke="rgb(66,133,255)" paint-order="fill stroke markers" d=" M 199.9689198419485 267.77586262105433 L 199.9689198419485 306.72197214844505" stroke-opacity="1" stroke-linecap="round" stroke-linejoin="round" stroke-miterlimit="10" stroke-width="1.5"/><path fill="none" stroke="rgb(66,133,255)" paint-order="fill stroke markers" d=" M 199.9689198419485 306.72197214844505 L 238.91502936933955 306.72197214844505" stroke-opacity="1" stroke-linecap="round" stroke-linejoin="round" stroke-miterlimit="10" stroke-width="2"/><path fill="none" stroke="rgb(66,133,255)" paint-order="fill stroke markers" d=" M 238.91502936933955 306.72197214844505 L 238.91502936933955 267.77586262105433" stroke-opacity="1" stroke-linecap="round" stroke-linejoin="round" stroke-miterlimit="10" stroke-width="2"/><path fill="none" stroke="rgb(66,133,255)" paint-order="fill stroke markers" d=" M 238.91502936933955 267.77586262105433 L 199.9689198419485 267.77586262105433" stroke-opacity="1" stroke-linecap="round" stroke-linejoin="round" stroke-miterlimit="10" stroke-width="2"/><path fill="none" stroke="rgb(255,255,102)" paint-order="fill stroke markers" d=" M 238.91502936933952 306.72197214844505 C 238.91502936933952 285.2126297912274 221.47826219916632 267.77586262105433 199.9689198419485 267.77586262105433" stroke-opacity="1" stroke-linecap="round" stroke-linejoin="round" stroke-miterlimit="10" stroke-width="6.5"/><path fill="none" stroke="rgb(255,255,102)" paint-order="fill stroke markers" d=" M 180.49586507825302 365.141136439531 C 212.75987861407975 365.141136439531 238.91502936933955 338.9859856842715 238.91502936933955 306.721972148445" stroke-opacity="1" stroke-linecap="round" stroke-linejoin="round" stroke-miterlimit="10" stroke-width="6.5"/><path fill="none" stroke="rgb(255,255,102)" paint-order="fill stroke markers" d=" M 83.13059125977544 267.77586262105433 C 83.13059125977544 321.54921851409847 126.72250918520842 365.14113643953107 180.495865078253 365.14113643953107" stroke-opacity="1" stroke-linecap="round" stroke-linejoin="round" stroke-miterlimit="10" stroke-width="6.5"/><path fill="none" stroke="rgb(255,255,102)" paint-order="fill stroke markers" d=" M 238.91502936933955 111.99142451149154 C 152.87765994046822 111.99142451149154 83.13059125977546 181.73849319218374 83.13059125977543 267.77586262105433" stroke-opacity="1" stroke-linecap="round" stroke-linejoin="round" stroke-miterlimit="10" stroke-width="6.5"/><path fill="none" stroke="rgb(255,255,102)" paint-order="fill stroke markers" d=" M 492.06474129738126 365.14113643953107 C 492.06474129738126 225.33041111761634 378.7257546912555 111.99142451149154 238.91502936933958 111.99142451149154" stroke-opacity="1" stroke-linecap="round" stroke-linejoin="round" stroke-miterlimit="10" stroke-width="6.5"/></g></g></svg>